<svg xmlns="http://www.w3.org/2000/svg" width="16" height="16" viewBox="0 0 16 16">
  <g id="Group_17" data-name="Group 17" transform="translate(-11627 -1347)">
    <rect id="Rectangle_51" data-name="Rectangle 51" width="16" height="16" rx="5" transform="translate(11627 1347)" fill="#7943ef"/>
    <path id="Path_23" data-name="Path 23" d="M8.241-8.085a1.186,1.186,0,0,1,.462.234,3.722,3.722,0,0,1,.515.469,4.82,4.82,0,0,1,.444.559,2.312,2.312,0,0,1,.267.487,1.265,1.265,0,0,1-.48.649q-.338.234-.693.487A33.444,33.444,0,0,0,5.416-2.54Q3.834-1.107,2.324.408a6.776,6.776,0,0,0-.764.875q-.32.442-.658.965a.278.278,0,0,1-.249.144q-.16,0-.267-.207A2.026,2.026,0,0,1,.218,1.7a3.624,3.624,0,0,1-.08-.55Q.12.876.12.75A3.382,3.382,0,0,1,.244-.187a4.3,4.3,0,0,1,.329-.82,6.386,6.386,0,0,1,.471-.757q.267-.37.551-.748a4.959,4.959,0,0,0,.48-.4q.231-.216.462-.4A13.354,13.354,0,0,1,3.7-4.2q.6-.406,1.164-.875a.262.262,0,0,0,.089-.216H4.829q-.711,0-1.422.045T1.968-5.2a.151.151,0,0,1-.16-.108.64.64,0,0,1-.036-.2,4.392,4.392,0,0,0-.089-.568q-.071-.334-.142-.658t-.124-.6a2.359,2.359,0,0,1-.053-.361q0-.252.169-.288A1.743,1.743,0,0,1,1.9-8.013a11.912,11.912,0,0,1,1.795.135,11.912,11.912,0,0,0,1.795.135q.178,0,.5-.009t.666-.027Q7-7.8,7.308-7.833a2.05,2.05,0,0,0,.453-.09Q7.886-7.959,8-8T8.241-8.085Z" transform="translate(11631.88 1359.085)" fill="#fff"/>
  </g>
</svg>
